<?xml version="1.0" encoding="utf-8"?>
<!-- Generator: Adobe Illustrator 20.0.0, SVG Export Plug-In . SVG Version: 6.00 Build 0)  -->
<svg version="1.1" xmlns="http://www.w3.org/2000/svg" xmlns:xlink="http://www.w3.org/1999/xlink" x="0px" y="0px"
	 viewBox="0 0 155.7 155.7" style="enable-background:new 0 0 155.7 155.7;" xml:space="preserve">
<style type="text/css">
	.st0{fill:#1C9EB3;}
	.st1{fill:#FFFFFF;}
</style>
<g id="Layer_7">
</g>
<g id="Layer_6">
</g>
<g id="Layer_5">
</g>
<g id="Layer_4">
</g>
<g id="Layer_3">
	<g>
		<circle class="st0" cx="77.8" cy="77.8" r="77.8"/>
	</g>
	<path class="st1" d="M136.1,74.6c-0.4-8.1-2.5-15.8-6-22.7c-1.1-2.2-2.3-4.4-3.7-6.5c-10.5-15.6-28.3-26-48.6-26
		c-20.2,0-38.1,10.3-48.6,26c-1.4,2.1-2.6,4.3-3.7,6.5c-3.5,6.9-5.6,14.6-6,22.7c-0.1,1.1-0.2,2.1-0.2,3.2c0,1.1,0.1,2.2,0.2,3.2
		c0.4,8.1,2.6,15.8,6,22.7c1.1,2.2,2.3,4.4,3.7,6.5c10.5,15.6,28.3,26,48.6,26c20.2,0,38.1-10.3,48.6-26c1.4-2.1,2.6-4.3,3.7-6.5
		c3.5-6.9,5.6-14.6,6-22.7c0.1-1.1,0.2-2.1,0.2-3.2C136.3,76.7,136.2,75.7,136.1,74.6z M122.7,51.9c3.9,6.8,6.4,14.5,6.9,22.7h-25.9
		c-0.2-8.2-1-15.9-2.5-22.7H122.7z M118.3,45.4H99.7c-2.1-7.2-4.8-13.2-8.1-17.6C102.3,30.7,111.6,37,118.3,45.4z M58.4,81.1h38.8
		c-0.2,8.4-1.2,16.1-2.7,22.7H61.1C59.6,97.2,58.6,89.5,58.4,81.1z M58.4,74.6c0.2-8.4,1.2-16.1,2.7-22.7h33.5
		c1.5,6.6,2.5,14.3,2.7,22.7H58.4z M77.8,25.9c5.4,0,11.1,7.3,15,19.5H62.9C66.7,33.2,72.4,25.9,77.8,25.9z M64.1,27.8
		c-3.3,4.4-6,10.4-8.1,17.6H37.3C44.1,37,53.4,30.7,64.1,27.8z M32.9,51.9h21.5c-1.4,6.8-2.3,14.5-2.5,22.7H26.1
		C26.6,66.3,29,58.6,32.9,51.9z M32.9,103.8C29,97,26.6,89.3,26.1,81.1h25.9c0.2,8.2,1,15.9,2.5,22.7H32.9z M37.3,110.3H56
		c2.1,7.2,4.8,13.2,8.1,17.6C53.4,124.9,44.1,118.7,37.3,110.3z M77.8,129.8c-5.4,0-11.1-7.3-15-19.5h29.9
		C88.9,122.5,83.2,129.8,77.8,129.8z M91.6,127.9c3.3-4.4,6-10.4,8.1-17.6h18.7C111.6,118.7,102.3,124.9,91.6,127.9z M101.2,103.8
		c1.4-6.8,2.3-14.5,2.5-22.7h25.9c-0.5,8.2-2.9,16-6.9,22.7H101.2z"/>
</g>
<g id="Layer_2">
</g>
</svg>
