<?xml version="1.0" encoding="utf-8"?>
<!-- Generator: Adobe Illustrator 20.0.0, SVG Export Plug-In . SVG Version: 6.00 Build 0)  -->
<svg version="1.1" xmlns="http://www.w3.org/2000/svg" xmlns:xlink="http://www.w3.org/1999/xlink" x="0px" y="0px"
	 viewBox="0 0 155.7 155.7" style="enable-background:new 0 0 155.7 155.7;" xml:space="preserve">
<style type="text/css">
	.st0{fill:#1C9EB3;}
	.st1{fill:#FFFFFF;}
</style>
<g id="Layer_7">
</g>
<g id="Layer_6">
	<g>
		<circle class="st0" cx="77.8" cy="77.8" r="77.8"/>
		<path class="st1" d="M109.8,110.8H49.5c-11.7,0-21.2-9.5-21.2-21.2c0-8.8,5.5-16.7,13.7-19.8C42.5,56,53.9,44.9,67.8,44.9
			c7.4,0,14.3,3.1,19.2,8.6c2.8-1.3,5.9-2,9-2c11.8,0,21.4,9.6,21.4,21.4c0,1.2-0.1,2.4-0.3,3.7c6.3,2.9,10.3,9.3,10.3,16.3
			c0,9.1-6.6,16.5-15.3,17.8v0.2L109.8,110.8z M67.8,49.3c-11.8,0-21.5,9.6-21.5,21.5l0.1,2.2l-1.6,0.5c-7.1,2.1-12.1,8.7-12.1,16.1
			c0,9.2,7.5,16.8,16.8,16.8l60.3,0c7.4-0.2,13.2-6.2,13.2-13.6c0-5.8-3.7-11-9.2-12.8l-2-0.7l0.5-2c0.4-1.5,0.6-3,0.6-4.4
			c0-9.4-7.6-17-17-17c-3,0-5.9,0.8-8.4,2.3l-1.7,1l-1.2-1.5C80.6,52.3,74.4,49.3,67.8,49.3z"/>
	</g>
	<g>
		<circle class="st0" cx="77.8" cy="77.8" r="77.8"/>
		<g>
			<g>
				<path class="st1" d="M47,96h-5.5V54.9h28.4v4.9H47v12.6h20.1v4.9H47V96z"/>
				<path class="st1" d="M109.6,96V71.7c0-1.2,0.1-6.4,0.1-10.2h-0.1L98.1,96h-5.5L81,61.5h-0.1c0,3.8,0.1,9,0.1,10.2V96h-5.4V54.9
					h8l11.7,34.7h0.1l11.7-34.7h7.9V96H109.6z"/>
			</g>
			<path class="st1" d="M37.3,113.3c-0.8,0-1.7-0.3-2.3-1c-19-19-19-50,0-69c1.3-1.3,3.3-1.3,4.6,0s1.3,3.3,0,4.6
				c-16.5,16.5-16.5,43.3,0,59.8c1.3,1.3,1.3,3.3,0,4.6C39,113,38.1,113.3,37.3,113.3z"/>
			<path class="st1" d="M28,120.1c-0.8,0-1.7-0.3-2.3-1c-22.8-22.8-22.8-59.8,0-82.6c1.3-1.3,3.3-1.3,4.6,0s1.3,3.3,0,4.6
				c-20.2,20.2-20.2,53.2,0,73.4c1.3,1.3,1.3,3.3,0,4.6C29.7,119.8,28.8,120.1,28,120.1z"/>
			<path class="st1" d="M119.1,113.3c-0.8,0-1.7-0.3-2.3-1c-1.3-1.3-1.3-3.3,0-4.6c16.5-16.5,16.5-43.3,0-59.8
				c-1.3-1.3-1.3-3.3,0-4.6c1.3-1.3,3.3-1.3,4.6,0c19,19,19,50,0,69C120.7,113,119.9,113.3,119.1,113.3z"/>
			<path class="st1" d="M128.4,120.1c-0.8,0-1.7-0.3-2.3-1c-1.3-1.3-1.3-3.3,0-4.6c9.8-9.8,15.2-22.8,15.2-36.7s-5.4-26.9-15.2-36.7
				c-1.3-1.3-1.3-3.3,0-4.6c1.3-1.3,3.3-1.3,4.6,0c11,11,17.1,25.7,17.1,41.3s-6.1,30.3-17.1,41.3
				C130,119.8,129.2,120.1,128.4,120.1z"/>
		</g>
	</g>
</g>
<g id="Layer_5">
</g>
<g id="Layer_4">
</g>
<g id="Layer_3">
</g>
<g id="Layer_2">
</g>
</svg>
