<?xml version="1.0" encoding="utf-8"?>
<!-- Generator: Adobe Illustrator 20.0.0, SVG Export Plug-In . SVG Version: 6.00 Build 0)  -->
<svg version="1.1" xmlns="http://www.w3.org/2000/svg" xmlns:xlink="http://www.w3.org/1999/xlink" x="0px" y="0px"
	 viewBox="0 0 155.7 155.7" style="enable-background:new 0 0 155.7 155.7;" xml:space="preserve">
<style type="text/css">
	.st0{fill:#1C9EB3;}
	.st1{fill:#FFFFFF;}
</style>
<g id="Layer_7">
</g>
<g id="Layer_6">
</g>
<g id="Layer_5">
	<g>
		<circle class="st0" cx="77.8" cy="77.8" r="77.8"/>
		<g>
			<g>
				<circle class="st1" cx="108.7" cy="117.4" r="8.2"/>
			</g>
			<g>
				<ellipse class="st1" cx="42.4" cy="117.3" rx="8.2" ry="8.2"/>
			</g>
			<path class="st1" d="M127.1,119.6C127.1,119.6,127.1,119.6,127.1,119.6l-5.7,0c-1.2,0-2.2-1-2.2-2.2c0-5.7-4.7-10.4-10.4-10.4
				c-5.6,0-10.3,4.6-10.4,10.3c0,1.2-1.1,2.2-2.2,2.2L54.6,119c-1.2,0-2.1-0.9-2.2-2.1c-0.2-5.6-4.8-10-10.4-10
				c-5.5,0-10.1,4.3-10.4,9.8c-0.1,1.2-1,2.1-2.2,2.1c0,0,0,0,0,0l-5.7,0c-1,0-1.9-0.7-2.1-1.7l-4.1-17.5c-0.2-0.9,0.2-1.9,1-2.4
				c0,0,4.1-2.4,7.7-4.4c2-1.1,4.8-2.1,7.8-3.1c2.5-0.8,5-1.7,6.9-2.6c9.7-9,38-8.5,39.2-8.4c0.5,0,0.9,0.2,1.3,0.5l14.8,11.6
				c1.2,0.4,5.8,1.8,11.5,1.8c7.4,0,27,8.4,29.2,9.4c0.6,0.3,1.1,0.8,1.2,1.4c0.2,0.6,0.1,1.3-0.3,1.8l-8.9,13.4
				C128.5,119.2,127.9,119.6,127.1,119.6z M123.5,115.1l2.5,0l6.8-10.2c-7-2.9-20.1-8-25-8c-7.5,0-13.2-2.1-13.4-2.2
				c-0.2-0.1-0.4-0.2-0.6-0.3L79.2,83.1c-8.3-0.1-28.9,1-35.5,7.5c-0.2,0.2-0.4,0.3-0.6,0.4c-2.2,1.1-5,2.1-7.8,3
				c-2.7,0.9-5.4,1.8-7.1,2.8c-2.2,1.2-4.7,2.7-6.2,3.5l3.3,14.2l2.1,0c1.4-6.8,7.4-11.9,14.5-11.9c7.2,0,13.3,5.2,14.6,12.1
				l37.5,0.3c1.2-7,7.3-12.4,14.6-12.4C116.2,102.5,122.4,108,123.5,115.1z"/>
			<path class="st1" d="M110,85.1c-0.2,0.8-0.6,1.6-1.4,2.1c-1.5,1-3.5,0.6-4.5-0.8c-13.2-19.2-39.6-24.2-58.8-11
				c-1.5,1-3.5,0.6-4.5-0.8c-1-1.5-0.6-3.5,0.8-4.5c22.2-15.2,52.6-9.5,67.8,12.7C110,83.5,110.1,84.3,110,85.1z"/>
			<path class="st1" d="M122.1,76.1c-0.2,0.9-0.7,1.7-1.5,2.2c-1.6,1.1-3.8,0.7-4.8-0.9C107.3,65.1,94.6,56.9,80,54.1
				c-14.6-2.7-29.5,0.4-41.8,8.8c-1.6,1.1-3.8,0.7-4.8-0.9c-1.1-1.6-0.7-3.8,0.9-4.8c13.8-9.5,30.5-13,47-9.9
				c16.5,3.1,30.8,12.4,40.2,26.2C122,74.3,122.2,75.2,122.1,76.1z"/>
			<path class="st1" d="M135,65c-0.2,1.1-0.7,2.2-1.7,2.9c-1.9,1.4-4.7,1.1-6.1-0.9C116,52,99.6,42.3,81.1,39.6
				c-18.5-2.7-37,2-51.9,13.2c-1.9,1.4-4.7,1.1-6.1-0.9c-1.4-1.9-1.1-4.7,0.9-6.1c16.9-12.6,37.6-17.9,58.4-14.9
				s39.2,13.9,51.8,30.8C134.9,62.7,135.2,63.9,135,65z"/>
		</g>
	</g>
</g>
<g id="Layer_4">
</g>
<g id="Layer_3">
</g>
<g id="Layer_2">
</g>
</svg>
