<?xml version="1.0" encoding="utf-8"?>
<!-- Generator: Adobe Illustrator 20.0.0, SVG Export Plug-In . SVG Version: 6.00 Build 0)  -->
<svg version="1.1" id="Layer_1" xmlns="http://www.w3.org/2000/svg" xmlns:xlink="http://www.w3.org/1999/xlink" x="0px" y="0px"
	 viewBox="0 0 293.7 254.8" style="enable-background:new 0 0 293.7 254.8;" xml:space="preserve">
<g>
	<g>
		<path d="M24.9,228.9h27.6c0,0.7,0.1,1.1,0.1,1.2c0,6.3-0.1,11-0.4,14.2c-0.5,5.1-3.1,8.2-7.8,9.3c-2,0.5-4.4,0.8-7,0.9
			c-2.6,0.2-6.6,0.2-12,0.2c-6.8,0-11.6-0.2-14.4-0.6c-2.8-0.4-5.1-1.2-6.7-2.5c-1.1-0.8-2-1.9-2.6-3.3c-0.6-1.3-1-3.1-1.2-5.2
			c-0.2-2-0.3-6-0.3-12c0-4.1,0.1-7.1,0.3-9.2c0.2-2.1,0.6-3.9,1.1-5.5c1.1-3.4,3.6-5.5,7.3-6.3c4.1-0.8,10.3-1.2,18.7-1.2
			c5,0,8.9,0.1,11.8,0.4c2.9,0.3,5.3,0.7,7.2,1.4c3,1.1,4.9,3.4,5.5,6.9c0.3,1.8,0.5,4.2,0.5,7.3H40.4c0-1.3-0.1-2.1-0.2-2.6
			c-0.1-0.4-0.4-0.8-0.7-1.1c-0.7-0.5-2.1-0.9-4.2-1c-2-0.1-5-0.2-8.8-0.2c-4.2,0-7.2,0.1-8.9,0.3c-1.8,0.2-3,0.6-3.7,1.2
			c-0.7,0.6-1.1,1.6-1.3,3c-0.2,1.4-0.3,3.7-0.3,7.1c0,3.8,0.1,6.4,0.3,7.9c0.2,1.5,0.7,2.5,1.3,3.1c0.7,0.6,1.5,0.9,2.6,1.1
			c1.1,0.1,4.4,0.2,10,0.3c5.5,0,8.8-0.1,10-0.2c1.2-0.1,2.1-0.3,2.8-0.6c0.6-0.3,1-0.7,1.2-1.4c0.2-0.6,0.4-1.6,0.4-2.9
			c0-0.2,0-0.6,0-1.2H24.9V228.9z"/>
		<path d="M61.7,209.7h43.9v10.5h-32v6.4H104v9.8H73.6v7.1h32.2v10.7H61.7V209.7z"/>
		<path d="M114,209.7h21.1l20.7,33.2h1.2l-0.3-33.2h12.3v44.4h-21L127.4,221h-1.3l0.3,33.1H114V209.7z"/>
		<path d="M179.2,209.7h12.7v44.4h-12.7V209.7z"/>
		<path d="M198.3,209.7h13.3l14.4,33.3h2.3l14.3-33.3h13.2l-19.3,44.4h-18.5L198.3,209.7z"/>
		<path d="M262.2,209.7h12.7v44.4h-12.7V209.7z"/>
	</g>
	<path d="M165.3,182c0,6.7-5.4,12.2-12.2,12.2l0,0c-6.7,0-12.2-5.4-12.2-12.2v-42.9c0-6.7,5.4-12.2,12.2-12.2l0,0
		c6.7,0,12.2,5.4,12.2,12.2V182z"/>
	<path d="M196.9,150.5c0,5.4-4.4,9.8-9.8,9.8l0,0c-5.4,0-9.8-4.4-9.8-9.8V116c0-5.4,4.4-9.8,9.8-9.8l0,0c5.4,0,9.8,4.4,9.8,9.8
		V150.5z"/>
	<path d="M129.5,170.6c0,5.8-4.7,10.5-10.5,10.5l0,0c-5.8,0-10.5-4.7-10.5-10.5v-37c0-5.8,4.7-10.5,10.5-10.5l0,0
		c5.8,0,10.5,4.7,10.5,10.5V170.6z"/>
	<path d="M99.7,143.2c0,4.4-3.6,8-8,8l0,0c-4.4,0-8-3.6-8-8V115c0-4.4,3.6-8,8-8l0,0c4.4,0,8,3.6,8,8V143.2z"/>
	<circle cx="108.3" cy="72.8" r="9.7"/>
	<circle cx="116.2" cy="46.4" r="7.4"/>
	<circle cx="124.8" cy="23" r="5.5"/>
	<circle cx="189.1" cy="91.1" r="9.2"/>
	<path d="M86.1,94.3c0,4.2,3.4,7.5,7.5,7.5c4.2,0,7.5-3.4,7.5-7.5c0-4.2-3.4-7.5-7.5-7.5C89.5,86.7,86.1,90.1,86.1,94.3z"/>
	<circle cx="127.6" cy="3.8" r="3.8"/>
	<circle cx="132.3" cy="81.9" r="8.8"/>
	<ellipse cx="140.1" cy="56.7" rx="9.2" ry="9.2"/>
	<ellipse cx="140.3" cy="11.8" rx="4.2" ry="4.1"/>
	<path d="M143.8,108.4c0,6.3,5.1,11.4,11.4,11.4c6.3,0,11.4-5.1,11.4-11.4c0-6.3-5.1-11.4-11.4-11.4
		C148.9,96.9,143.8,102,143.8,108.4z"/>
	<circle cx="121" cy="106.8" r="9.9"/>
	<ellipse cx="163.3" cy="77.7" rx="10.9" ry="10.9"/>
	<circle cx="140.9" cy="31.3" r="7.3"/>
	<g>
		<path d="M293.7,216.7c0,3.9-3.1,7-7.1,7c-4,0-7.1-3.1-7.1-7c0-3.9,3.2-6.9,7.2-6.9C290.6,209.7,293.7,212.8,293.7,216.7z
			 M281.2,216.7c0,3.1,2.3,5.5,5.4,5.5c3,0,5.3-2.5,5.3-5.5c0-3.1-2.3-5.6-5.4-5.6C283.5,211.1,281.2,213.6,281.2,216.7z
			 M285.5,220.3h-1.6v-6.9c0.6-0.1,1.5-0.2,2.7-0.2c1.3,0,1.9,0.2,2.4,0.5c0.4,0.3,0.7,0.8,0.7,1.5c0,0.8-0.6,1.4-1.4,1.6v0.1
			c0.7,0.2,1,0.8,1.2,1.7c0.2,1.1,0.4,1.4,0.5,1.7h-1.7c-0.2-0.3-0.3-0.8-0.5-1.7c-0.1-0.7-0.5-1.1-1.4-1.1h-0.8V220.3z
			 M285.5,216.4h0.8c0.9,0,1.6-0.3,1.6-1c0-0.6-0.5-1.1-1.5-1.1c-0.4,0-0.7,0-0.9,0.1V216.4z"/>
	</g>
</g>
</svg>
