<?xml version="1.0" encoding="utf-8"?>
<!-- Generator: Adobe Illustrator 20.0.0, SVG Export Plug-In . SVG Version: 6.00 Build 0)  -->
<svg version="1.1" xmlns="http://www.w3.org/2000/svg" xmlns:xlink="http://www.w3.org/1999/xlink" x="0px" y="0px"
	 viewBox="0 0 155.7 155.7" style="enable-background:new 0 0 155.7 155.7;" xml:space="preserve">
<style type="text/css">
	.st0{fill:#1C9EB3;}
	.st1{fill:#FFFFFF;}
</style>
<g id="Layer_7">
</g>
<g id="Layer_6">
</g>
<g id="Layer_5">
</g>
<g id="Layer_4">
</g>
<g id="Layer_3">
</g>
<g id="Layer_2">
	<g>
		<circle class="st0" cx="77.8" cy="77.8" r="77.8"/>
		<path class="st1" d="M54.6,120.5h49.9c1.7,0,3-1.4,3-3l0-79.3c0-1.7-1.4-3-3-3H54.6c-1.7,0-3,1.4-3,3l0,79.3
			C51.5,119.1,52.9,120.5,54.6,120.5z M60.6,110.6c-1.3,0-2.5-1.1-2.5-2.4V44.3c0-1.3,1.1-2.5,2.4-2.5h37.7c1.3,0,2.4,1.1,2.4,2.5
			l0,63.9c0,1.3-1.1,2.4-2.5,2.4H60.6z M81.8,118.2c-0.5,0-0.9-0.4-0.9-0.9v-0.9c0-0.5,0.4-0.9,0.9-0.9h5.8c0.5,0,0.9,0.4,0.9,0.9
			v0.9c0,0.5-0.4,0.9-0.9,0.9H81.8z M71.4,118.2c-0.5,0-0.9-0.4-0.9-0.9v-0.9c0-0.5,0.4-0.9,0.9-0.9h5.8c0.5,0,0.9,0.4,0.9,0.9v0.9
			c0,0.5-0.4,0.9-0.9,0.9H71.4z"/>
	</g>
	<g>
		<circle class="st0" cx="77.8" cy="77.8" r="77.8"/>
	</g>
	<path class="st1" d="M124.2,51.8c-4.9-9-12.7-14.4-21.2-14.6c-8.6-0.3-16.7,4.6-22.2,13.3c-1.6,2.5-2.9,5.3-3.7,8.1
		c-0.2-0.3-0.4-0.5-0.6-0.7c-1.8-2.4-1.9-3.6-1.9-3.9c0-0.6,0.6-2,2.2-3.8c2.1-2.4,3.3-5.3,3.4-8.4c0-0.8,0-1.6-0.2-2.4
		c-0.6-4.1-3.1-7.7-6.9-10.1c-6-3.6-15.2-1-21.3,2.3c-9,4.9-14.3,12.6-14.6,21.3c-0.3,8.6,4.6,16.7,13.3,22.2c2.5,1.6,5.3,2.8,8,3.7
		c-0.2,0.2-0.5,0.3-0.7,0.5c-2.4,1.8-3.5,2-3.9,1.9c-0.6,0-1.9-0.6-3.8-2.2c-3.1-2.7-6.9-3.9-10.8-3.2c-4.1,0.6-7.8,3.1-10.1,6.9
		c-3.6,6.1-1,15.3,2.3,21.3c4.9,9,12.7,14.3,21.3,14.6c8.4,0.3,16.6-4.6,22.1-13.3c0.9-1.4,2.6-4.4,3.7-8c0.2,0.2,0.3,0.5,0.5,0.7
		c1.8,2.4,1.9,3.6,1.9,3.9c0,0.6-0.6,1.9-2.2,3.8c-2.1,2.4-3.3,5.4-3.4,8.4c0,0.8,0,1.6,0.1,2.4c0.7,4.1,3.2,7.7,7,10
		c2.1,1.2,4.5,1.7,7.1,1.7c4.9,0,10.2-1.9,14.2-4c9-4.9,14.3-12.7,14.6-21.3c0.3-8.6-4.6-16.7-13.3-22.1c-2.5-1.6-5.3-2.8-8-3.7
		c0.3-0.2,0.5-0.4,0.8-0.6c2.4-1.8,3.6-1.9,3.9-1.9c0.6,0,2,0.6,3.8,2.2c3.1,2.7,6.9,3.8,10.8,3.2c4.1-0.6,7.7-3.2,10-7
		c1.1-1.8,1.7-4,1.7-6.5C128.4,62.1,126.9,56.7,124.2,51.8z M52.2,72.2c-7.7-4.9-12-11.9-11.8-19.3c0.2-7.4,4.9-14.2,12.9-18.5
		c3.7-2,8.5-3.6,12.7-3.6c2,0,3.9,0.4,5.4,1.3c3,1.8,4.9,4.6,5.4,7.8c0.1,0.6,0.1,1.2,0.1,1.8c-0.1,2.3-1,4.5-2.6,6.4
		c-1.3,1.5-2.9,3.8-3,5.8c-0.1,1.6,0.8,3.7,2.6,6c1,1.2,1.7,2.7,2,4.4l0.1,0.4c-2.8,0.4-5.5,1.6-7.7,3.8c-2.3,2.3-3.6,5.2-3.8,8.2
		l-0.6-0.1C60.3,76.1,55.9,74.5,52.2,72.2z M76.5,91.7c-0.4,3.5-2,7.9-4.4,11.7c-4.9,7.7-12,12-19.3,11.8
		c-7.4-0.2-14.1-4.9-18.5-12.9c-3-5.5-5-13.5-2.3-18c1.8-3,4.6-4.9,7.8-5.4c0.5-0.1,1-0.1,1.5-0.1c2.4,0,4.8,0.9,6.7,2.6
		c2.3,1.9,4.2,2.9,5.8,3c2.1,0.1,4.4-1.4,6-2.6c1.2-1,2.6-1.6,4.3-2l0.5-0.1c0.4,2.8,1.6,5.5,3.8,7.7c2.3,2.3,5.2,3.5,8.1,3.8
		L76.5,91.7z M103.4,83.5c7.7,4.9,12,11.9,11.8,19.3c-0.3,7.4-5,14.2-12.9,18.5c-5.5,3-13.5,5-18,2.4c-2.9-1.8-4.9-4.6-5.4-7.7
		c-0.1-0.6-0.1-1.2-0.1-1.8c0.1-2.3,1-4.5,2.6-6.4c1.9-2.3,2.9-4.2,3-5.8c0.1-1.6-0.8-3.6-2.6-6c-1-1.2-1.7-2.7-2-4.3l-0.1-0.5
		c2.8-0.4,5.5-1.6,7.7-3.8c2.3-2.3,3.6-5.2,3.8-8.2l0.5,0.1C95.3,79.6,99.7,81.2,103.4,83.5z M123.7,71.4c-1.8,3-4.6,4.9-7.7,5.4
		c-3,0.4-5.9-0.4-8.2-2.5c-2.2-1.9-4.2-2.9-5.8-3c-0.1,0-0.1,0-0.2,0c-1.6,0-3.6,0.9-5.9,2.6c-1.3,1-2.8,1.7-4.4,2L91,76
		c-0.4-2.8-1.6-5.5-3.8-7.6c-2.3-2.3-5.2-3.5-8.1-3.8l0.1-0.5c0.4-3.7,2-8.1,4.3-11.8c4.9-7.7,11.9-12,19.3-11.8
		c7.4,0.2,14.1,5,18.5,12.9l0,0c2.4,4.4,3.7,9.3,3.6,13.1C124.9,68.4,124.5,70.1,123.7,71.4z"/>
</g>
</svg>
