<?xml version="1.0" encoding="utf-8"?>
<!-- Generator: Adobe Illustrator 20.0.0, SVG Export Plug-In . SVG Version: 6.00 Build 0)  -->
<svg version="1.1" xmlns="http://www.w3.org/2000/svg" xmlns:xlink="http://www.w3.org/1999/xlink" x="0px" y="0px"
	 viewBox="0 0 155.7 155.7" style="enable-background:new 0 0 155.7 155.7;" xml:space="preserve">
<style type="text/css">
	.st0{fill:#1C9EB3;}
	.st1{fill:#FFFFFF;}
</style>
<g id="Layer_7">
	<circle class="st0" cx="77.8" cy="77.8" r="77.8"/>
	<path class="st1" d="M130.9,39.4l0.1-8.2l-0.1,0L105,32.3l0,0v0l0,0l0,0.1v31.5c-1.7-1.1-3.9-1.7-6-1.4c-3.8,0.5-6,3.4-4.9,6.6
		c1.1,3.2,5.1,5.4,8.9,4.9c3-0.4,4.9-2.3,5.1-4.6l0,0V41.2l19.5-0.8v23.4c-1.7-1.1-3.9-1.7-6-1.4c-3.8,0.5-6,3.4-4.9,6.6
		c1.1,3.2,5.1,5.4,8.9,4.9c3-0.4,4.9-2.2,5.1-4.6l0,0V39.4z"/>
	<polygon class="st1" points="91.6,84.8 91.6,110 102.5,116.2 113.5,116.2 113.5,96 113.5,78 102.5,78 	"/>
	<path class="st1" d="M82.9,71.7c-1.8,2.6-4.7,4.3-8.6,4.3v0H38.5c-4,0-7.7-1.6-10.3-4.3c-3.8,0.5-6.7,3.6-6.7,7.5v35.6
		c0,4.2,3.4,7.6,7.6,7.6h53.4c4.2,0,7.6-3.4,7.6-7.6V79.3C90.1,75.3,86.9,72,82.9,71.7z"/>
	<circle class="st1" cx="39" cy="59.7" r="14.7"/>
	<circle class="st1" cx="71.7" cy="59.7" r="14.7"/>
</g>
<g id="Layer_6">
</g>
<g id="Layer_5">
</g>
<g id="Layer_4">
</g>
<g id="Layer_3">
</g>
<g id="Layer_2">
</g>
</svg>
