<?xml version="1.0" encoding="utf-8"?>
<!-- Generator: Adobe Illustrator 20.0.0, SVG Export Plug-In . SVG Version: 6.00 Build 0)  -->
<svg version="1.1" id="Layer_1" xmlns="http://www.w3.org/2000/svg" xmlns:xlink="http://www.w3.org/1999/xlink" x="0px" y="0px"
	 viewBox="0 0 1920 1080" style="enable-background:new 0 0 1920 1080;" xml:space="preserve">
<style type="text/css">
	.st0{fill:#FFFFFF;}
	.st1{fill:#FEFEFE;}
	.st2{fill:#D57628;}
	.st3{fill:#E4A672;}
	.st4{fill:#D9843C;}
	.st5{fill:#D88137;}
	.st6{fill:#DC8E4B;}
	.st7{fill:#DA863E;}
	.st8{fill:#DC8C48;}
	.st9{fill:#FCFBFB;}
	.st10{fill:#DF9558;}
	.st11{fill:#D9843B;}
	.st12{fill:#DB8B47;}
	.st13{fill:#DE9456;}
	.st14{fill:#E19D64;}
	.st15{fill:#E09B61;}
	.st16{fill:#E0995E;}
	.st17{fill:#DC8D4B;}
	.st18{fill:#DC8E4C;}
	.st19{fill:#DA8841;}
	.st20{fill:#FFFDFC;}
	.st21{fill:#E3A36D;}
	.st22{fill:#E9B98E;}
</style>
<g>
	<path class="st0" d="M1,123C1,83.7,1.1,44.3,0.9,5c0-3.4,0.7-4.1,4.1-4.1C229.7,1,454.3,1,679,1c412.5,0,825,0,1237.5-0.1
		c3.7,0,4.6,0.8,4.6,4.6c-0.1,357-0.1,714,0,1071c0,3.7-0.8,4.6-4.6,4.6c-426.2-0.1-852.3-0.1-1278.5-0.1c-1.5-1.6-1.5-3.7-1.9-5.6
		c-11.9-60-24.3-119.9-36.4-179.8c-7-34.6-14-69.3-21.1-103.9c-0.8-3.8-0.9-7.6,0-11.4c1.6-6.6,0.1-12.6-3.9-17.9
		c-2.1-2.9-3.4-6-4.1-9.5c-4.6-22.5-8.7-45.2-13.7-67.6c-0.2-1-0.4-2-0.6-2.9c-0.6-4.7,0.9-5.9,5.3-3.9c9.9,4.7,20,9.1,29.9,13.9
		c2.1,1,3.9,2.4,5.6,4c3.6,3.6,5.1,7,3,12.4c-2.8,7.3,1.1,14.6,8,17c7,2.4,14.6-1.3,17.5-8.5c0.4-0.9,0.6-1.9,0.9-2.9
		c1.3-4.4,2-4.8,6.4-2.9c21.5,9.8,43,19.8,64.5,29.7c29,13.4,58.1,26.8,87.1,40.3c19.5,9,39,18,58.5,27.1
		c29.5,13.7,58.9,27.5,88.5,40.8c2.7,1.2,5.5,2.5,8.1,4c5.7,3.3,10.9,2.8,16.4-0.8c16.9-11,34-21.6,51.1-32.4
		c36.1-22.7,72.2-45.5,108.2-68.3c36.3-23,72.7-45.9,109-68.9c39.7-25.1,79.4-50.2,119.2-75.2c22.3-14,44.6-28.1,66.7-42.2
		c5.1-3.2,5.4-5.5,1.6-11.1c-26.2-39.4-52.7-78.6-78.7-118.2c-27.7-42.2-56-84.1-83.9-126.1c-3.6-5.5-6-12.1-12.7-14.9
		c-1.8-1.2-3.8-0.7-5.8-0.8c-1.9,0-3.7,0-5.5-0.4c-2.3-0.8-4.8-0.6-7.2-0.6c-1.9,0-3.8,0-5.7-0.4c-2.1-0.7-4.2-0.7-6.4-0.6
		c-2.2,0-4.4,0-6.6-0.4c-2.1-0.7-4.2-0.7-6.4-0.6c-2.2,0-4.4,0-6.6-0.4c-2.1-0.7-4.2-0.7-6.4-0.6c-1.9,0-3.8,0-5.7-0.4
		c-2.1-0.7-4.2-0.7-6.4-0.6c-2.2,0-4.4,0-6.6-0.4c-2.1-0.7-4.2-0.7-6.4-0.6c-2.2,0-4.4,0-6.6-0.4c-2.1-0.7-4.2-0.7-6.4-0.6
		c-1.9,0-3.8,0-5.7-0.4c-2.4-0.8-4.8-0.6-7.2-0.6c-1.9,0-3.8,0-5.7-0.4c-2.1-0.7-4.2-0.7-6.4-0.6c-2.2,0-4.4,0-6.5-0.4
		c-2.1-0.7-4.2-0.7-6.4-0.6c-1.9,0-3.8,0-5.7-0.4c-2.4-0.8-4.8-0.6-7.2-0.6c-1.9,0-3.8,0-5.7-0.4c-2.1-0.7-4.2-0.7-6.4-0.6
		c-2.2,0-4.4,0-6.6-0.4c-2.1-0.7-4.2-0.7-6.4-0.6c-2.2,0-4.4,0-6.6-0.4c-2.1-0.7-4.2-0.7-6.4-0.6c-1.9,0-3.8,0-5.7-0.4
		c-2.1-0.7-4.2-0.7-6.4-0.6c-2.2,0-4.4,0-6.6-0.4c-2.1-0.7-4.2-0.7-6.4-0.6c-2.2,0-4.4,0-6.6-0.4c-2.1-0.7-4.2-0.7-6.4-0.6
		c-1.9,0-3.8,0-5.7-0.4c-2.1-0.7-4.2-0.7-6.4-0.6c-2.2,0-4.4,0-6.6-0.4c-2.1-0.7-4.2-0.7-6.4-0.6c-2.2,0-4.4,0-6.6-0.4
		c-2.1-0.7-4.2-0.7-6.4-0.6c-1.9,0-3.8,0-5.7-0.4c-2.4-0.8-4.8-0.6-7.2-0.6c-1.9,0-3.8,0-5.7-0.4c-2.1-0.7-4.2-0.7-6.4-0.6
		c-2.2,0-4.4,0-6.5-0.4c-2.1-0.7-4.2-0.7-6.4-0.6c-1.9,0-3.8,0-5.7-0.4c-2.4-0.8-4.8-0.6-7.2-0.6c-1.9,0-3.8,0-5.7-0.4
		c-2.1-0.7-4.2-0.7-6.4-0.6c-2.2,0-4.4,0-6.6-0.4c-2.1-0.7-4.2-0.7-6.4-0.6c-2.2,0-4.4,0-6.6-0.4c-2.1-0.7-4.2-0.7-6.4-0.6
		c-1.9,0-3.8,0-5.7-0.4c-2.1-0.7-4.2-0.7-6.4-0.6c-2.2,0-4.4,0-6.6-0.4c-2.1-0.7-4.2-0.7-6.4-0.6c-2.2,0-4.4,0-6.6-0.4
		c-2.1-0.7-4.2-0.7-6.4-0.6c-1.9,0-3.8,0-5.7-0.4c-2.4-0.8-4.8-0.6-7.2-0.6c-1.9,0-3.8,0-5.7-0.4c-2.1-0.7-4.2-0.7-6.4-0.6
		c-2.2,0-4.4,0-6.5-0.4c-2.1-0.7-4.2-0.7-6.4-0.6c-1.9,0-3.8,0-5.7-0.4c-2.4-0.8-4.8-0.6-7.2-0.6c-1.9,0-3.8,0-5.7-0.4
		c-2.1-0.7-4.2-0.7-6.4-0.6c-2.2,0-4.4,0-6.6-0.4c-2.1-0.7-4.2-0.7-6.4-0.6c-2.2,0-4.4,0-6.6-0.4c-2.1-0.7-4.2-0.7-6.4-0.6
		c-1.9,0-3.8,0-5.7-0.4c-2.1-0.7-4.2-0.7-6.4-0.6c-2.2,0-4.4,0-6.6-0.4c-2.1-0.7-4.2-0.7-6.4-0.6c-2.2,0-4.4,0-6.6-0.4
		c-2.1-0.7-4.2-0.7-6.4-0.6c-1.9,0-3.8,0-5.7-0.4c-2.4-0.8-4.8-0.6-7.2-0.6c-1.9,0-3.8,0-5.7-0.4c-2.1-0.7-4.2-0.7-6.4-0.6
		c-2.2,0-4.4,0-6.5-0.4c-2.1-0.7-4.2-0.7-6.3-0.6c-1.8,0-3.7,0-5.5-0.4c-2.2-0.6-4.4-1-6.5,0.2c-2.8,1.1-3.9,3.4-4.8,6
		c-10.5,33.3-21.2,66.6-31.8,99.9c-5.3,16.8-10.7,33.6-16.1,50.4c-5.7,17.9-11.3,35.9-17.2,53.7c-0.8,2.5-1.2,5.3-3.9,6.7
		c-4.8,1.1-9.6,0.2-14.4,0.7c-7.5-0.1-15,0.4-22.4-0.4c-6.7-1.6-13.5-0.4-20.2-0.8c-7.2-0.2-14.3-0.1-21.5-0.1
		c-7.6,0-8.1-0.4-9.6-7.8c-6-29.9-12.1-59.8-18.2-89.7c-5.1-25-9.9-50-15.3-75c-0.7-3-0.2-5.4,1.9-7.8c8.3-9.5,17.3-18.5,25.9-27.8
		c17.6-19.1,35.5-37.9,53.2-57c10.6-11.5,21.3-23,32.1-34.3c22.9-23.9,45.1-48.5,68.3-72.2c3.1-3.2,5.9-6.8,9-10
		c6-5.3,10.8-11.7,16.5-17.3c10.5-10.6,20.2-22,30.9-32.4c-10.8,10.3-20.4,21.8-30.9,32.3c-5.5,5.4-10,11.8-16.1,16.6
		c-3.6,4.1-7.1,8.4-10.9,12.3c-23.7,24.3-46.6,49.4-70.2,73.8c-12.3,12.7-24.3,25.6-36.5,38.4c-19.5,20.5-38.8,41.2-58.5,61.5
		c-3.8,3.9-7.2,8.3-11.3,12c-3.4,3-5.1,2.5-6.1-2c-1.7-7.1-2.9-14.4-4.4-21.6c-13.9-68.6-28-137.1-41.7-205.7
		c-0.2-0.9-0.1-2-0.6-2.6c5.4,28.7,11.2,57.6,16.8,86.5c9.4,48.4,18.6,96.9,28.3,145.2c0.9,4.3,0.3,7.6-2.6,11
		c-7,8.3-15,15.7-22.3,23.6c-9.4,10.1-19,20.1-28.6,30c-20.7,21.5-41,43.2-61.7,64.7c-12.3,12.9-24.7,25.7-36.8,38.8
		c-21,22.5-42.5,44.6-63.5,67.1c-10.4,11-20.6,22.3-31.5,32.8c-2.7,2.6-5,4.6-9.1,2.1c-6-3.7-6.5-4-5-10.2
		c3.6-14.9,7.1-29.8,10.6-44.7c15.5-64.6,30.7-129.4,46.2-194c1.1-4.5,2.2-9.1,3.2-13.6c0.9-4.4,2.5-7.3,7.5-8.7
		c6.9-2,10.2-8.8,8.5-15.4c-1.7-6.8-7.8-11-14.6-10c-2,0.3-3.9,1-5.5,2.2c-2.9,2.4-5.6,2-8.8,0.4c-19.3-9.8-38.5-19.9-57.6-30
		c-9.7-5.1-19.5-10.2-29.2-15.3c-35.1-18.1-69.8-36.8-105-54.7c-5.8-2.9-11.4-6.2-17.3-9c-4.4-2.4-8.5-5.2-13.1-7.2
		c-4.8-2.5-9.6-5.1-14.6-7.3c-0.4-0.1-0.8-0.4-1.2-0.6c-2.9-2.4-6.3-3.6-9.6-5.2C8,127.6,4.2,125.8,1,123z"/>
	<path class="st1" d="M626,1081c-206.8,0-413.7,0-620.5,0.1c-3.7,0-4.6-0.8-4.6-4.6C1,914.7,1,752.8,1,591c0.9-0.8,2-1.2,3.2-1.2
		c12.3-0.6,24.6-1.4,36.9-2c18.8-0.9,37.5-1.8,56.3-2.8c8.5-0.4,16.9-1.1,25.4-1.3c13.8-0.3,27.6-1.4,41.4-2.1
		c5.7-0.3,9,1.4,11.4,7.1c5.5,13,18.6,19.4,32.3,16.6c12.7-2.6,22.3-14.2,22.7-27.7c0.2-4.9-1.5-9.6-3.7-13.9
		c-1.7-3.3-1.1-5.8,1.4-8.5c15.1-16.2,30.3-32.3,45.4-48.5c25-26.8,50-53.5,75.1-80.2c14.4-15.3,28.6-30.7,43-46
		c19.9-21.3,39.8-42.5,59.7-63.8c6-6.4,12.5-12.5,18-19.4c1-1.3,2.2-2.9,4.1-2.4c1.8,0.5,2.2,2.4,2.5,4c2.5,11.6,4.6,23.2,6.8,34.8
		c8.1,41.5,16.2,83.1,24.1,124.7c0.2,1.1,0.4,2.3,0.6,3.4c0.6,3.4-0.8,5-4.2,5.2c-3.4,0.2-6.6-0.3-9.9-0.8c-2.3-0.4-4.7-0.2-7-0.2
		c-21.2,0.7-42.3-1.5-63.4-1c-3.6,0.1-6.2-1-8-4.6c-3-5.8-8.8-7.5-13.9-4.7c-4.7,2.6-6.3,8.3-3.2,13.9c2,3.6,1.5,6.4-0.5,9.7
		c-27.3,44.9-54.3,89.8-81.6,134.7c-8.3,13.7-16.3,27.5-24.8,41.1c-3.4,5.5-3.8,5.7-10,4.6c-6.5-1.2-12,0.8-16,6
		c-4,5.3-4.6,11.4-1.4,17.4c3.1,5.9,8.3,9.3,14.8,8.2c7-1.2,10.3,1.9,13.4,7.3c5.3,9.3,11.3,18.1,16.8,27.2c1.8,2.9,1.8,5.3-0.2,8.2
		c-5.7,8.7-5,15.8,2.2,22.9c2.7,2.6,2.7,5,1.4,8c-3,6.9-6.4,13.6-9.6,20.3c-15,31.4-29.7,62.9-44.9,94.2
		c-4.4,8.2-7.9,16.9-12.1,25.2c-4.2,7.8-7.4,16.1-11.8,23.8c-0.3,0.9-0.7,1.7-1.5,3c1-1.3,1.2-2.3,1.7-3.2
		c4.1-7.5,7.4-15.5,11.4-23.1c4.3-8.3,7.7-17,12.1-25.2c11.6-24,22.9-48.1,34.9-71.9c6.9-13.8,13.4-27.9,20.3-41.8
		c2-4,4.5-6,9.2-6.1c9.6-0.3,16.2-8.1,15.3-17.3c-0.9-9.3-8.8-15.9-18.1-14.5c-4.8,0.7-7.5-0.9-9.9-4.7c-6.3-10.2-12.6-20.4-19-30.6
		c-1.6-2.6-1.7-4.8,0.3-7.3c4.7-6,5.1-12.7,1.2-19.1c-2.3-3.7-1.8-6.6,0.4-10.1c18.9-31.4,38-62.7,56.9-94.1
		c16.4-27.2,33-54.4,49.4-81.7c2.2-3.6,4.5-6.4,9.1-6.8c2.9-0.3,5.3-2.1,7-4.4c1.9-2.5,4.4-3.2,7.4-3.3c23.6-0.3,47.3,1.6,70.9,1.2
		c3.9-0.1,7.9,1,11.9,1c4.1,0,5.2,2.9,5.8,6.2c2.9,14.9,5.8,29.8,8.6,44.7c1.7,9.2,3.7,18.3,5.3,27.5c1.3,6.8,0.6,8-6,9.4
		c-44.1,9.7-88.2,19.2-132.4,28.7c-2.9,0.6-5.8,1.3-8.8,2c-1.3,0.3-2.9,0.4-3.1,2.1c-0.2,1.6,1.1,2.4,2.3,3c5.7,2.8,11.5,5.4,17.2,8
		c24.9,11.6,49.9,23,74.8,34.6c24.6,11.4,49.2,22.9,74,34.1c4.2,1.9,6.5,4.4,7.4,9.1c4.2,23.1,8.8,46.2,13.3,69.2
		c1.2,6.2,0.6,6.8-5.8,7.1c-15.3,0.6-24.7,15-19.2,29.4c2.2,5.9,2.3,6.2-2.8,9.9c-39.2,29.1-78.3,58.2-117.7,87.1
		c-16.6,12.2-33.1,24.5-49.8,36.5c-9.9,7.7-20.2,14.8-30.3,22.3c-4.9,3.7-10,7.2-14.9,10.9c-2,1-3.2,2.9-5.3,3.8
		c-1.1,0.6-1.8,1.8-3.1,2.2c-1.2,0.5-1.9,1.8-3.1,2.3c-1.8,0.9-2.9,2.7-4.7,3.5c-1.1,0.7-1.9,1.7-3,2.4c-1.3,0.6-2.3,1.8-3.4,2.7
		c-0.4,0.1-0.8,0.2-1.1,0.5c0.2-0.1,0.5-0.2,0.9-0.3c1.4-0.9,2.4-2.3,3.9-2.9c1.1-0.7,1.9-1.7,3.1-2.4c1.8-0.9,2.9-2.7,4.7-3.5
		c0.9-0.5,1.6-1.4,2.5-2c1.5-0.4,2.4-1.7,3.7-2.4c1.9-1.1,3.2-2.9,5.3-3.8c4.8-3.8,9.9-7.3,14.9-10.9c10-7.6,20.4-14.7,30.3-22.4
		c30.3-22,60.3-44.2,90.5-66.2c26.1-19,52.3-37.9,78.3-57.1c3.2-2.4,5.9-2.7,9.4-0.3c6.2,4.2,13.2,4.2,20.1,1.6
		c4.9-1.8,5.6-1.6,6.6,3.7c3.4,16.5,6.5,33,9.7,49.5c5.9,30.6,11.9,61.1,17.8,91.7c8.6,44.6,17.2,89.3,26,133.9
		C627.1,1076.3,627.9,1078.8,626,1081z"/>
	<path class="st0" d="M1,587c0-154.3,0-308.7,0-463c4.5,0.3,7.3,4.1,11.2,5.5c3.4,1.6,6.9,3,9.8,5.5l0.1,0c5.1,1.9,9.6,4.9,14.4,7.3
		c4.6,2.3,9,5,13.6,7.3c27.8,14.7,55.4,29.9,82.9,45c26,14.3,51.9,28.6,77.9,42.8c15.5,8.5,30.9,17,46.4,25.5
		c3.2,1.8,5.2,3.9,5.1,7.8c-0.1,4.2,2,7.5,5.4,9.6c3.7,2.4,4.2,5.3,3.2,9.4c-6.9,29.7-14.1,59.3-21.1,89
		c-12.3,52.2-24.9,104.3-37.1,156.5c-0.3,1.1-0.5,2.3-0.8,3.4c-2.3,9-1.7,9.9-11.4,9.9c-14.4,0-25.4,10.9-27.2,25.1
		c-0.7,5.5-1.7,6.4-7.3,6.6c-22.8,0.7-45.5,2.2-68.3,3.2c-19.6,0.8-39.2,1.9-58.8,3c-10.5,0.6-20.9,0.6-31.4,1.7
		C5.4,588.6,3,588.7,1,587z"/>
	<path class="st2" d="M1,587c23.5-1.1,46.9-2.1,70.4-3.3c31.8-1.6,63.6-3.3,95.3-4.8c3.4-0.2,4.8-0.9,5.2-4.7
		c1.4-16.4,15.5-28.4,31.8-27c4.4,0.4,5.2-1.2,6-4.7c17.1-72.2,34.2-144.4,51.4-216.5c3-12.6,5.9-25.3,9.1-37.9
		c0.7-2.9,0.7-4.6-2.4-6.2c-4.4-2.2-7-6.4-6.8-11.4c0.2-3.5-1.4-4.9-4.1-6.4c-67.1-36.8-134.2-73.7-201.3-110.5
		c-2.2-1.2-4.3-2.5-6.5-3.8c-0.1-1,0.1-1.5,1.3-1.1c24.8,12.9,49.6,25.7,74.4,38.6c45,23.5,90,47,135,70.5c2.6,1.4,4.5,2.1,7.4-0.3
		c4.6-3.9,11.4-3.7,16.4-0.3c5.2,3.5,7.3,8.6,6.5,14.7c-0.8,5.8-5.4,10.9-11.4,11.8c-2.9,0.5-3.8,1.8-4.4,4.3
		c-20.3,85.5-40.5,170.9-61.1,256.3c-1.6,6.6,4.1,6,6.6,8.5c2.9,2.9,4-0.8,5.3-2.2c81.8-86,163.5-172,245.3-258c2-2.1,2.9-3.8,2.3-7
		c-15.2-77.7-30.3-155.5-45.2-233.3c-0.3-1.6-2.3-4.6,0.2-5.2c2.6-0.5,1.9,3,2.2,4.6c15.6,76.1,31,152.3,46.4,228.4
		c0.3,1.4,0.7,2.8,1.2,4.8c6.4-6.7,12.5-13.1,18.6-19.5c56-59,112.1-117.9,168.1-176.9c1.4-1.5,2.8-3.2,4.1-4.8
		c0.9,0.3,1.5,0.8,1,1.9c-11,11.8-21.9,23.6-32.9,35.4c-21.5,23.1-43.1,46.2-64.7,69.2c-13.4,14.3-27,28.5-40.4,42.8
		c-17.1,18.3-34.2,36.7-51.3,55.1c-1.2,1.3-1.9,2.4-1.5,4.4c9,44,17.9,88,26.8,132c2.6,12.8,5.4,25.5,7.9,38.2
		c0.4,2.1,1.2,2.9,3.2,2.9c8.1,0,16.3,0,24.4,0.1c7.1,1.1,14.3-0.2,21.4,0.7c7.5,0.1,15.1,0.2,22.6,0.3c5.1,0.6,10.2,0.8,15.3-0.1
		c5.3-16.4,10.6-32.9,15.9-49.3c6.2-19.3,12.4-38.5,18.6-57.8c6.3-19.7,12.5-39.4,18.7-59.1c4.7-14.8,9.4-29.6,14-44.4
		c1-3.3,2.2-6,6-6.5c2-0.3,4-0.5,5.9,0.1c1.9,0.1,3.8,0.2,5.7,0.3c2,0.9,4.3,0,6.3,0.7c2.2,0.1,4.4,0.2,6.6,0.3
		c2.1,0.9,4.3-0.1,6.4,0.7c1.9,0.1,3.8,0.2,5.8,0.3c2.3,1.1,4.9-0.1,7.2,0.8c1.9,0.1,3.8,0.2,5.7,0.3c2,0.9,4.3,0,6.3,0.7
		c2.2,0.1,4.4,0.2,6.6,0.3c2,0.9,4.3-0.1,6.4,0.7c2.2,0.1,4.4,0.2,6.6,0.3c2.1,0.9,4.3-0.1,6.4,0.7c1.9,0.1,3.8,0.2,5.7,0.3
		c2,1,4.2,0,6.3,0.7c2.2,0.1,4.4,0.2,6.7,0.3c2,0.9,4.3,0,6.3,0.7c2.2,0.1,4.4,0.2,6.6,0.3c2.1,0.9,4.3-0.1,6.4,0.7
		c1.9,0.1,3.8,0.2,5.7,0.3c2.3,1,4.9-0.1,7.3,0.8c1.9,0.1,3.8,0.2,5.7,0.3c2,0.9,4.3,0,6.3,0.7c2.2,0.1,4.4,0.2,6.6,0.3
		c2.1,0.9,4.3-0.1,6.4,0.7c1.9,0.1,3.8,0.2,5.8,0.3c2.3,1,4.9-0.1,7.2,0.8c1.9,0.1,3.8,0.2,5.7,0.3c2,0.9,4.3,0,6.3,0.7
		c2.2,0.1,4.4,0.2,6.6,0.3c2,0.9,4.3-0.1,6.4,0.7c2.2,0.1,4.4,0.2,6.6,0.3c2.1,0.9,4.3-0.1,6.4,0.7c1.9,0.1,3.8,0.2,5.7,0.3
		c2,0.9,4.2,0,6.3,0.7c2.2,0.1,4.4,0.2,6.7,0.3c2,0.9,4.3,0,6.3,0.7c2.2,0.1,4.4,0.2,6.6,0.3c2.1,0.9,4.3-0.1,6.4,0.7
		c1.9,0.1,3.8,0.2,5.7,0.3c2.3,1,4.9-0.1,7.3,0.8c1.9,0.1,3.8,0.2,5.7,0.3c2,0.9,4.3,0,6.3,0.7c2.2,0.1,4.4,0.2,6.6,0.3
		c2.1,0.9,4.3-0.1,6.4,0.7c1.9,0.1,3.8,0.2,5.8,0.3c2.3,1,4.9-0.1,7.2,0.8c1.9,0.1,3.8,0.2,5.7,0.3c2,0.9,4.3,0,6.3,0.7
		c2.2,0.1,4.4,0.2,6.6,0.3c2,0.9,4.3-0.1,6.4,0.7c2.2,0.1,4.4,0.2,6.6,0.3c2.1,0.9,4.3-0.1,6.4,0.7c1.9,0.1,3.8,0.2,5.7,0.3
		c2,0.9,4.2,0,6.3,0.7c2.2,0.1,4.4,0.2,6.7,0.3c2,0.9,4.3-0.1,6.3,0.7c2.2,0.1,4.4,0.2,6.6,0.3c2.1,0.9,4.3-0.1,6.4,0.7
		c1.9,0.1,3.8,0.2,5.7,0.3c2,1,4.2,0,6.3,0.7c2.2,0.1,4.4,0.2,6.7,0.3c2,0.9,4.3,0,6.3,0.7c2.2,0.1,4.4,0.2,6.6,0.3
		c2.1,0.9,4.3-0.1,6.4,0.7c1.9,0.1,3.8,0.2,5.7,0.3c2.3,1,4.9-0.1,7.3,0.8c1.9,0.1,3.8,0.2,5.7,0.3c2,0.9,4.3,0,6.3,0.7
		c2.2,0.1,4.4,0.2,6.6,0.3c2.1,0.9,4.3-0.1,6.4,0.7c1.9,0.1,3.8,0.2,5.8,0.3c2.3,1.1,4.9-0.1,7.2,0.8c1.9,0.1,3.8,0.2,5.7,0.3
		c2,0.9,4.3,0,6.3,0.7c2.2,0.1,4.4,0.2,6.6,0.3c2,0.9,4.3-0.1,6.4,0.7c2.2,0.1,4.4,0.2,6.6,0.3c2.1,0.9,4.3-0.1,6.4,0.7
		c1.9,0.1,3.8,0.2,5.7,0.3c2,1,4.2,0,6.3,0.7c2.2,0.1,4.4,0.2,6.7,0.3c2,0.9,4.3-0.1,6.3,0.7c2.2,0.1,4.4,0.2,6.6,0.3
		c2.1,0.9,4.3-0.1,6.4,0.7c1.9,0.1,3.8,0.2,5.7,0.3c2.3,1,4.9-0.1,7.3,0.8c1.9,0.1,3.8,0.2,5.7,0.3c2,1,4.3-0.1,6.3,0.8
		c10.4,6.1,14.3,17.3,20.4,26.5c52.3,78.2,104.2,156.6,156.3,234.9c3.4,5.2,3,7.5-1.9,10.6c-31,19.6-62,39.2-93,58.7
		c-58.3,36.8-116.6,73.5-174.8,110.3c-36.8,23.2-73.4,46.5-110.2,69.7c-26.7,16.8-53.4,33.6-80,50.4c-4,2.5-7.7,2.4-12,0.5
		c-21.5-10-43.1-19.7-64.6-29.6c-20.9-9.7-41.8-19.5-62.7-29.2c-28.1-13-56.2-25.8-84.3-38.8c-20.9-9.7-41.8-19.5-62.6-29.2
		c-12.9-6-25.8-12-39.2-18.2c-0.5,7.6-3.2,13.4-10.2,16.2c-5.6,2.2-10.8,1.5-15.3-2.7c-4.7-4.4-5.1-9.8-3.7-15.7
		c0.5-2.1,2.9-4.2,1.9-5.9c-1.7-2.8-4.1-5.9-6.9-7.3c-11.9-6.1-24.2-11.6-36.9-17.5c0,6.7,2.1,12.5,3.2,18.4
		c3.7,19.6,7.8,39.1,11.7,58.6c0.5,2.2,1.3,4.2,2.9,6.1c5.2,6.4,6.7,13.6,4.4,21.7c-1.7,6,0.9,11.8,2,17.5
		c5.7,29.2,11.7,58.4,17.7,87.5c5.8,28.4,11.7,56.8,17.5,85.1c5.9,28.9,11.7,57.8,17.5,86.7c1.4,7.2,3.5,14.4,4,21.8c-4,0-8,0-12,0
		c-0.7-10.5-3.4-20.6-5.4-30.9c-14.1-73.3-28.4-146.7-42.6-220c-2.3-11.7-4.6-23.5-7-35.7c-7.3,3.9-15.3,6.1-21.9,1.6
		c-6.7-4.5-10.5-1.9-15.7,1.9c-54.2,39.6-108.5,79-162.8,118.5c-0.8,0.6-1.7,1.1-2.5,1.6c-1,0.4-1.2-0.1-1.1-1
		c24-17.9,48-35.8,72.1-53.7c32.2-23.9,64.5-47.8,96.7-71.7c2.1-1.6,3.6-2.5,1.9-5.8c-7.9-16,3.2-33.1,21-33c1.3,0,2.7,0.5,4.1-0.4
		c-5-25.7-10-51.5-14.9-77.3c-0.6-3-2.8-3.4-4.9-4.4c-52.4-24.3-104.8-48.5-157.2-72.7c-3.6-1.7-7.2-3.4-10.9-5
		c-1.9-0.8-3.1-1.9-3-4.1c0.1-2.6,2.3-2.5,4-2.9c43.2-9.4,86.5-18.7,129.7-28.1c5-1.1,10.1-2.2,15.1-3.2c2.7-0.5,3.4-1.7,2.9-4.4
		c-5.1-25.6-10-51.3-14.9-76.9c-0.5-2.8-1.7-3.7-4.6-3.8c-27.8-0.5-55.6-1.2-83.5-1.9c-2.3-0.1-4,0.2-5.2,2.6
		c-1.8,3.5-5.2,5.3-9.1,5.2c-2.9-0.1-4.1,1.2-5.4,3.3c-36.4,60.3-72.9,120.5-109.4,180.7c-1.3,2.2-1.2,3.5,0.3,5.6
		c5.2,7.2,4.9,15.1-0.9,22c-1.7,2-1.4,3.2-0.2,5.1c6.9,11,13.8,22,20.6,33.1c1.5,2.4,2.8,3,5.6,2.3c7.2-1.9,13.2,0.5,17.7,6.2
		c4.6,5.7,5.1,12.3,1.8,18.8c-3.3,6.5-8.9,9.9-16.3,9.4c-3.3-0.3-4.6,1.1-5.9,3.8c-18.4,37.7-36.9,75.3-55.3,113
		c-0.4,0.7-0.8,1.4-1.2,2.2c-1,0.1-1.5-0.2-1.1-1.3c11.5-24.5,23-49.1,34.5-73.6c6.5-13.9,13-27.7,19.7-41.5
		c1.3-2.7,1.6-4.2-1.2-6.4c-7.9-6.3-8.7-17-2-24.8c1.9-2.3,1.8-3.6,0.4-5.9c-6.7-10.5-13.3-21.1-19.8-31.8c-1.7-2.7-3-3.8-6.6-2.9
		c-7.4,1.9-14.7-1.4-18.6-7.6c-3.9-6.2-3.5-14.3,0.9-20.2c4.4-5.8,11.9-8.5,19.2-5.9c3.3,1.2,4.3-0.1,5.7-2.4
		c36.2-59.8,72.4-119.7,108.6-179.4c1.4-2.3,1.7-3.7-0.2-6c-3.1-3.6-3.3-8-1-12.2c2.2-4,5.8-6,10.3-5.8c4.7,0.2,8.4,2.6,9.9,7.2
		c0.9,2.9,2.3,3.4,5,3.4c27.2,0.5,54.3,1.1,81.5,1.8c3.2,0.1,4.4-0.3,3.7-4c-10.7-54.5-21.2-109.1-31.8-163.7
		c-0.2-0.8-0.5-1.6-0.7-2.4c-1.9,0-2.5,1.6-3.4,2.6C390.2,384.1,309.8,470,229.4,555.8c-2.3,2.4-3,4.1-1.2,7.5
		c8.3,15.4,1.5,34.5-14.5,41.5c-16,7-34.8-1-40.3-17.6c-1.3-3.9-2.9-4.6-6.6-4.4c-51.1,2.7-102.2,5.3-153.2,7.8
		c-4.2,0.2-8.3,0.2-12.5,0.3C1,589.7,1,588.3,1,587z"/>
	<path class="st3" d="M12,129.9c-3.7-2-7.3-4-11-5.9c0-0.3,0-0.7,0-1c4.1,1.2,7.5,3.5,11.1,5.6C12.6,129.1,12.6,129.5,12,129.9z"/>
	<path class="st4" d="M684,68c10.8-11.6,21.7-23.1,32.5-34.7c0.4,0.4,0.8,0.8,1.2,1.1C706.8,46,695.9,57.5,685,69
		C684.5,68.9,684.1,68.6,684,68z"/>
	<path class="st5" d="M684,68c0.3,0.3,0.7,0.7,1,1c-5.3,5.7-10.1,11.8-16,17c-0.3-0.6-0.6-1.3-1-1.9C673.4,78.8,678.7,73.4,684,68z"
		/>
	<path class="st6" d="M719,30.7c5-4.1,8.2-10.1,13.5-14c0.3,0.3,0.7,0.7,1,1c-4.5,4.7-9,9.4-13.4,14.2
		C719.7,31.4,719.4,31.1,719,30.7z"/>
	<path class="st7" d="M50.3,148.8c-0.4,0.4-0.8,0.7-1.3,1.1c-4.3-2.3-8.7-4.7-13-7c-0.1-0.9,0.1-1.5,1.2-1
		C41.8,143.9,46.2,146.1,50.3,148.8z"/>
	<path class="st8" d="M37.2,141.9c-0.4,0.3-0.8,0.7-1.2,1c-4.8-2.4-9.6-4.7-13.9-7.8C28,135.3,32.3,139.4,37.2,141.9z"/>
	<path class="st9" d="M562,466.8c-7.1,0-14.3,0.4-21.4-0.7C547.7,466.4,554.9,465,562,466.8z"/>
	<path class="st10" d="M12,129.9c0-0.4,0-0.9,0.1-1.3c3.4,2,7.8,2.5,10,6.4C18.7,133.3,15.4,131.6,12,129.9z"/>
	<path class="st9" d="M599.9,467c-5.1,1.7-10.2,0.7-15.3,0.1C589.7,467.1,594.8,467,599.9,467z"/>
	<path class="st9" d="M717,252.8c-2.4,0.1-4.9,0.2-7.2-0.8C712.2,252.3,714.7,251.2,717,252.8z"/>
	<path class="st9" d="M971,272.8c-2.5,0.1-4.9,0.2-7.2-0.8C966.1,272.3,968.7,271.2,971,272.8z"/>
	<path class="st9" d="M844,262.8c-2.5,0.1-4.9,0.2-7.2-0.8C839.1,262.3,841.7,261.2,844,262.8z"/>
	<path class="st9" d="M806,259.8c-2.5,0.1-4.9,0.2-7.3-0.8C801.1,259.3,803.7,258.2,806,259.8z"/>
	<path class="st9" d="M1098,282.8c-2.5,0.1-4.9,0.2-7.3-0.8C1093.1,282.3,1095.7,281.2,1098,282.8z"/>
	<path class="st9" d="M1136,285.8c-2.4,0.1-4.9,0.2-7.2-0.8C1131.2,285.3,1133.7,284.2,1136,285.8z"/>
	<path class="st9" d="M1225,292.8c-2.5,0.1-4.9,0.2-7.3-0.8C1220.1,292.3,1222.7,291.2,1225,292.8z"/>
	<path class="st9" d="M933,269.8c-2.5,0.1-4.9,0.2-7.3-0.8C928.1,269.3,930.7,268.2,933,269.8z"/>
	<path class="st9" d="M1034,277.8c-2.1,0.1-4.3,0.2-6.3-0.7C1029.8,277.2,1032,276.3,1034,277.8z"/>
	<path class="st9" d="M679,249.8c-2,0-3.9-0.1-5.9-0.1C675,248.6,677,248.5,679,249.8z"/>
	<path class="st9" d="M1059,279.8c-2.1,0.1-4.2,0.2-6.3-0.7C1054.8,279.2,1057,278.3,1059,279.8z"/>
	<path class="st9" d="M1072,280.8c-2.1,0.1-4.3,0.2-6.3-0.7C1067.8,280.2,1070,279.3,1072,280.8z"/>
	<path class="st9" d="M1085,281.8c-2.2,0.1-4.3,0.3-6.4-0.7C1080.7,281.2,1083,280.3,1085,281.8z"/>
	<path class="st9" d="M691,250.8c-2.1,0.1-4.3,0.2-6.3-0.7C686.8,250.2,689,249.3,691,250.8z"/>
	<path class="st9" d="M1110,283.8c-2.1,0.1-4.3,0.2-6.3-0.7C1105.8,283.2,1108,282.3,1110,283.8z"/>
	<path class="st9" d="M1123,284.8c-2.2,0.1-4.3,0.3-6.4-0.7C1118.7,284.2,1121,283.3,1123,284.8z"/>
	<path class="st9" d="M704,251.8c-2.2,0.1-4.3,0.3-6.4-0.7C699.7,251.2,702,250.3,704,251.8z"/>
	<path class="st9" d="M1148,286.8c-2.1,0.1-4.3,0.2-6.3-0.7C1143.8,286.2,1146,285.3,1148,286.8z"/>
	<path class="st9" d="M1161,287.8c-2.2,0.1-4.3,0.3-6.4-0.7C1156.7,287.2,1159,286.3,1161,287.8z"/>
	<path class="st9" d="M1174,288.8c-2.2,0.1-4.4,0.3-6.4-0.7C1169.7,288.2,1172,287.3,1174,288.8z"/>
	<path class="st9" d="M1186,289.8c-2.1,0.1-4.3,0.2-6.3-0.7C1181.8,289.2,1184,288.3,1186,289.8z"/>
	<path class="st9" d="M1199,290.8c-2.1,0.1-4.3,0.2-6.3-0.7C1194.8,290.2,1197,289.3,1199,290.8z"/>
	<path class="st9" d="M1212,291.8c-2.2,0.1-4.3,0.3-6.4-0.7C1207.7,291.2,1210,290.3,1212,291.8z"/>
	<path class="st9" d="M729,253.8c-2.1,0.1-4.3,0.2-6.3-0.7C724.8,253.2,727,252.3,729,253.8z"/>
	<path class="st9" d="M1237,293.9c-2.1,0-4.3,0.2-6.3-0.8C1232.8,293.2,1235,292.3,1237,293.9z"/>
	<path class="st9" d="M742,254.8c-2.2,0.1-4.3,0.3-6.4-0.7C737.7,254.2,740,253.3,742,254.8z"/>
	<path class="st9" d="M755,255.8c-2.2,0.1-4.4,0.3-6.4-0.7C750.7,255.2,753,254.3,755,255.8z"/>
	<path class="st9" d="M767,256.8c-2.1,0.1-4.3,0.2-6.3-0.7C762.8,256.2,765,255.3,767,256.8z"/>
	<path class="st9" d="M780,257.8c-2.1,0.1-4.3,0.2-6.3-0.7C775.8,257.2,778,256.3,780,257.8z"/>
	<path class="st9" d="M793,258.8c-2.2,0.1-4.3,0.3-6.4-0.7C788.7,258.2,791,257.3,793,258.8z"/>
	<path class="st9" d="M818,260.8c-2.1,0.1-4.3,0.2-6.3-0.7C813.8,260.2,816,259.3,818,260.8z"/>
	<path class="st9" d="M831,261.8c-2.2,0.1-4.3,0.3-6.4-0.7C826.7,261.2,829,260.3,831,261.8z"/>
	<path class="st9" d="M856,263.8c-2.1,0.1-4.3,0.2-6.3-0.7C851.8,263.2,854,262.3,856,263.8z"/>
	<path class="st9" d="M869,264.8c-2.2,0.1-4.3,0.3-6.4-0.7C864.7,264.2,867,263.3,869,264.8z"/>
	<path class="st9" d="M882,265.8c-2.2,0.1-4.4,0.3-6.4-0.7C877.7,265.2,880,264.3,882,265.8z"/>
	<path class="st9" d="M894,266.8c-2.1,0.1-4.3,0.2-6.3-0.7C889.8,266.2,892,265.3,894,266.8z"/>
	<path class="st9" d="M907,267.8c-2.1,0.1-4.3,0.3-6.3-0.7C902.8,267.2,905,266.3,907,267.8z"/>
	<path class="st9" d="M920,268.8c-2.2,0.1-4.4,0.3-6.4-0.7C915.7,268.2,918,267.3,920,268.8z"/>
	<path class="st9" d="M1047,278.8c-2.2,0.1-4.4,0.3-6.4-0.7C1042.7,278.2,1045,277.3,1047,278.8z"/>
	<path class="st9" d="M945,270.8c-2.1,0.1-4.3,0.2-6.3-0.7C940.8,270.2,943,269.3,945,270.8z"/>
	<path class="st9" d="M958,271.8c-2.2,0.1-4.3,0.3-6.4-0.7C953.7,271.2,956,270.3,958,271.8z"/>
	<path class="st9" d="M983,273.8c-2.1,0.1-4.3,0.2-6.3-0.7C978.8,273.2,981,272.3,983,273.8z"/>
	<path class="st9" d="M996,274.8c-2.2,0.1-4.3,0.3-6.4-0.7C991.7,274.2,994,273.3,996,274.8z"/>
	<path class="st9" d="M1009,275.8c-2.2,0.1-4.4,0.3-6.4-0.7C1004.7,275.2,1007,274.3,1009,275.8z"/>
	<path class="st9" d="M1021,276.8c-2.1,0.1-4.3,0.2-6.3-0.7C1016.8,276.2,1019,275.3,1021,276.8z"/>
	<path class="st11" d="M367,917.1c0.4,0.3,0.7,0.7,1.1,1c-9.7,7.7-19.8,14.9-30.1,22c-1.1,0.5-1.2-0.1-1-0.9
		C347,931.8,357,924.4,367,917.1z"/>
	<path class="st4" d="M256.8,879.7c0.4,0.4,0.7,0.8,1.1,1.3c-4,8.3-8,16.7-12.1,25c-0.9,0.1-1.5-0.1-1-1.2
		C248.6,896.3,252.3,887.8,256.8,879.7z"/>
	<path class="st6" d="M244.9,904.8c0.3,0.4,0.7,0.8,1,1.2c-3.8,7.7-7.7,15.4-11.5,23.2c-0.4,0.4-0.8,0.4-1.1-0.1
		C237.1,920.9,241,912.8,244.9,904.8z"/>
	<path class="st12" d="M337,939.1c0.3,0.3,0.7,0.6,1,0.9c-5,3.7-10,7.3-15,11c-1.1,0.5-1.2-0.1-1-0.9C327,946.4,332,942.8,337,939.1
		z"/>
	<path class="st13" d="M322,950.1c0.3,0.3,0.7,0.6,1,0.9c-1.7,1.3-3.4,2.6-5.1,3.8c-0.5-0.2-0.8-0.4-1-0.9
		C318.6,952.7,320.3,951.4,322,950.1z"/>
	<path class="st14" d="M306,962c1.7-1.3,3.4-2.6,5.1-3.8c0.5,0.1,0.8,0.4,1,0.9c-1.7,1.3-3.4,2.6-5.1,3.9
		C306.5,962.7,306.2,962.4,306,962z"/>
	<path class="st15" d="M299.8,966.6c1.1-0.8,2.1-1.6,3.2-2.4c0.5,0.1,0.8,0.4,1,0.9c-1.3,1-2.7,2-4,3
		C299.4,967.6,299.4,967.1,299.8,966.6z"/>
	<path class="st16" d="M299.8,966.6c0,0.5,0.1,0.9,0.1,1.4c-1.2,0.9-2.3,1.7-4.2,3.1C296.5,968.1,298.4,967.6,299.8,966.6z"/>
	<path class="st17" d="M316.9,954c0.3,0.3,0.7,0.6,1,0.9c-1.3,0.9-2.5,1.8-3.8,2.7c-0.5-0.4-0.6-0.9-0.2-1.4
		C315,955.4,316,954.7,316.9,954z"/>
	<path class="st17" d="M304,965c-0.3-0.3-0.6-0.6-1-0.9c1-0.7,2-1.4,3-2.1c0.3,0.3,0.6,0.6,1,0.9C306,963.6,305,964.3,304,965z"/>
	<path class="st18" d="M314,956.1c0.1,0.5,0.1,1,0.2,1.4c-0.7,0.5-1.4,1-2.1,1.5c-0.3-0.3-0.7-0.6-1-0.9
		C312,957.5,313,956.8,314,956.1z"/>
	<path class="st19" d="M233.2,929c0.4,0,0.7,0.1,1.1,0.1c-0.6,1.3-1.1,2.6-1.8,4.1C231.3,931.3,232.9,930.3,233.2,929z"/>
	<path class="st0" d="M1409.3,562.8c-153.2,96.8-305.8,193.2-459.1,290c-1.8-11.8-3.5-23-5.2-34.3c-6.6-44.1-13.2-88.2-19.7-132.3
		c-6.8-45.9-13.6-91.9-20.4-137.8c-3.2-21.4-6.4-42.8-9.7-64.2c-0.6-3.8-0.9-5.5,4.4-4.7c60.6,10,121.2,19.7,181.8,29.6
		c66.7,10.8,133.3,21.8,200,32.6c41.9,6.8,83.8,13.5,125.7,20.3C1407.6,562.1,1408,562.3,1409.3,562.8z"/>
	<path class="st0" d="M945.7,851.9c-1.9,0.3-3.2-0.9-4.6-1.5c-103.4-47.8-206.9-95.7-310.3-143.5c-3-1.4-6-2.8-8.4-5.3
		c-1.5-1.6-3.5-2.5-5.7-2.9c-12-2-21.5-8-28.9-17.8c-5.4-7.2-11.6-13.7-17.6-20.4c-1.7-1.9-2.1-2.9-0.3-5.3
		c11.7-15.1,8.5-33.9-7.5-44.6c-2.2-1.5-2.7-2.7-1.9-5.2c6.1-18.7,12.1-37.4,17.8-56.1c1-3.1,3-3.6,5.5-4.1
		c45.5-9.8,91.1-19.6,136.6-29.5c55.1-11.9,110.2-23.8,165.3-35.9c3.8-0.8,4.9-0.5,5.6,3.7c8.7,59.5,17.7,118.9,26.5,178.3
		c9.4,62.9,18.7,125.8,28,188.7C945.9,850.9,945.7,851.4,945.7,851.9z"/>
	<path class="st0" d="M898.5,475.4c7.4-3.9,13.6-7.1,19.8-10.3c105.1-54.6,210.3-109.2,315.4-163.9c3.9-2,5.6-1.5,8,2.1
		c55,83,110.1,166,165.2,248.9c1.2,1.8,2.3,3.6,4.1,6.5C1239.8,530.8,1069.9,503.2,898.5,475.4z"/>
	<path class="st0" d="M676.6,253.9c185.4,14.6,369.4,29.1,553.5,43.6c-0.2,2-1.8,2-2.8,2.6c-110.4,57.4-220.9,114.7-331.3,172.1
		c-2.6,1.3-4.1,1.3-6.3-0.9c-70-71.4-140-142.7-210-214C679,256.4,678.3,255.6,676.6,253.9z"/>
	<path class="st0" d="M886.6,473.7c-10.8,0-20.7,0.2-30.6,0c-36.2-0.8-72.3-1.7-108.5-2.5c-46.3-1.1-92.6-2.1-138.9-3
		c-2.7-0.1-4.4,0-3.2-3.7c22.1-69.1,44.2-138.1,66.2-207.2c0.1-0.3,0.3-0.6,0.9-1.5C743.8,328.2,815,400.7,886.6,473.7z"/>
	<path class="st0" d="M871.8,478.8c-96.7,20.9-193.5,41.9-291,63c6-19,11.8-37.2,17.6-55.3c1.5-4.7,1.9-11.2,5.2-13.6
		c3.3-2.4,9.6-0.7,14.6-0.6c75.9,1.7,151.8,3.4,227.8,5.1c8.6,0.2,17.3,0,26,0C871.9,477.8,871.8,478.3,871.8,478.8z"/>
	<path class="st0" d="M523,657.1c-47.9-22.2-95.8-44.4-145.2-67.2c12.3-2.7,23.1-5,33.9-7.4c36.6-7.9,73.1-15.7,109.7-23.8
		c3.1-0.7,4-0.1,4.6,2.9c2.7,14.6,5.4,29.1,8.4,43.6c0.5,2.4,0,3.4-2.1,4.7c-17.3,10.4-20.9,30.5-8.3,46.1
		C524.2,656.9,524,657.4,523,657.1z"/>
	<path class="st0" d="M556.6,471.8c12.8,0,25.7,0.1,38.5-0.1c3.1,0,3.6,0.8,2.7,3.7c-6.9,21.4-13.8,42.7-20.5,64.2
		c-0.8,2.5-2.1,3.4-4.4,3.9c-12.7,2.7-25.4,5.4-38,8.3c-2.7,0.6-3.8,0.1-4.3-2.8c-5.1-25.3-10.2-50.6-15.4-75.8
		c-0.6-2.9,0.6-3.3,3.1-3.2c12.8,0.1,25.7,0,38.5,0C556.6,470.6,556.6,471.2,556.6,471.8z"/>
	<path class="st0" d="M574.9,547.1c-6.3,19.8-12.3,38.7-18.3,57.5c-0.3,1-0.3,2.7-2,2.3c-3.8-0.7-7.6-1-11.4-1
		c-1.5,0-1.2-1.8-1.5-2.8c-3-14.7-5.9-29.3-9-44c-0.4-2.1-0.3-2.9,2-3.4C547.8,553.1,560.9,550.2,574.9,547.1z"/>
	<path class="st20" d="M585.5,685.9c-9.6-4.4-19.1-8.7-28.6-13.2c-2.6-1.2-2-4.1-2.3-6.2c-0.3-2,2.1-1.8,3.3-2.3
		c7.5-3.3,7.5-3.2,12.8,3c5.1,6,10.3,11.9,15.5,17.9C586,685.4,585.7,685.6,585.5,685.9z"/>
	<path class="st21" d="M523,657.1c0.3-0.4,0.7-0.7,1-1.1c1.1,0.4,1.8,1.2,2.5,2.5C524.9,658.8,523.9,658.1,523,657.1z"/>
	<path class="st22" d="M543.3,666.4c1.6-0.6,2.7-0.7,2.9,0.5c0.2,1.6-0.9,0.7-1.5,0.4C544.3,667.2,544,666.8,543.3,666.4z"/>
</g>
</svg>
